<?xml version="1.0" standalone="no"?>
<!DOCTYPE svg PUBLIC "-//W3C//DTD SVG 20010904//EN"
 "http://www.w3.org/TR/2001/REC-SVG-20010904/DTD/svg10.dtd">
<svg version="1.0" xmlns="http://www.w3.org/2000/svg"
 width="512.000000pt" height="512.000000pt" viewBox="0 0 512.000000 512.000000"
 preserveAspectRatio="xMidYMid meet">
<metadata>
Created by potrace 1.16, written by Peter Selinger 2001-2019
</metadata>
<g transform="translate(0.000000,512.000000) scale(0.100000,-0.100000)"
fill="#000000" stroke="none">
<path d="M66 4931 c-16 -11 -37 -33 -48 -49 -18 -28 -18 -93 -16 -2078 l3
-2049 27 -74 c47 -127 94 -199 192 -296 104 -104 205 -161 340 -195 78 -20
117 -20 1996 -20 1879 0 1918 0 1996 20 43 11 117 39 164 62 69 34 103 60 180
138 78 77 104 111 138 180 23 47 51 121 62 164 20 77 20 116 20 1580 0 1454
-1 1502 -19 1530 -10 15 -32 37 -47 47 -28 18 -58 19 -626 19 l-598 0 0 473
c0 446 -1 474 -19 501 -10 15 -32 37 -47 47 -28 18 -83 19 -1849 19 -1774 0
-1821 -1 -1849 -19z m3456 -1932 c-1 -908 2 -1784 7 -1947 8 -284 10 -300 35
-372 15 -41 44 -105 65 -142 l39 -68 -1446 0 c-871 0 -1477 4 -1521 10 -206
27 -364 185 -391 391 -6 45 -10 795 -10 1927 l0 1852 1613 0 1612 0 -3 -1651z
m1298 -721 c0 -798 -4 -1363 -10 -1407 -20 -152 -119 -289 -253 -351 -130 -61
-335 -61 -464 0 -134 62 -233 200 -253 351 -6 44 -10 609 -10 1407 l0 1332
495 0 495 0 0 -1332z"/>
<path d="M716 4211 c-46 -31 -66 -69 -66 -131 0 -62 20 -100 66 -131 28 -18
70 -19 1204 -19 1134 0 1176 1 1204 19 46 31 66 69 66 131 0 62 -20 100 -66
131 -28 18 -70 19 -1204 19 -1134 0 -1176 -1 -1204 -19z"/>
<path d="M716 3571 c-46 -31 -66 -69 -66 -131 0 -62 20 -100 66 -131 28 -18
70 -19 1204 -19 1134 0 1176 1 1204 19 46 31 66 69 66 131 0 62 -20 100 -66
131 -28 18 -70 19 -1204 19 -1134 0 -1176 -1 -1204 -19z"/>
<path d="M1836 2931 c-15 -10 -37 -32 -47 -47 -18 -28 -19 -58 -19 -644 0
-586 1 -616 19 -644 10 -15 32 -37 47 -47 28 -18 58 -19 644 -19 586 0 616 1
644 19 15 10 37 32 47 47 18 28 19 58 19 644 0 586 -1 616 -19 644 -10 15 -32
37 -47 47 -28 18 -58 19 -644 19 -586 0 -616 -1 -644 -19z m1054 -691 l0 -410
-410 0 -410 0 0 410 0 410 410 0 410 0 0 -410z"/>
<path d="M716 2691 c-46 -31 -66 -69 -66 -131 0 -62 20 -100 66 -131 27 -17
52 -19 324 -19 326 0 328 0 371 66 26 39 26 129 0 168 -43 66 -45 66 -371 66
-272 0 -297 -2 -324 -19z"/>
<path d="M716 2051 c-46 -31 -66 -69 -66 -131 0 -62 20 -100 66 -131 27 -17
52 -19 324 -19 326 0 328 0 371 66 26 39 26 129 0 168 -43 66 -45 66 -371 66
-272 0 -297 -2 -324 -19z"/>
<path d="M716 1171 c-46 -31 -66 -69 -66 -131 0 -62 20 -100 66 -131 28 -18
70 -19 1204 -19 1134 0 1176 1 1204 19 46 31 66 69 66 131 0 62 -20 100 -66
131 -28 18 -70 19 -1204 19 -1134 0 -1176 -1 -1204 -19z"/>
</g>
</svg>
